<?xml version="1.0" encoding="utf-8"?>
<!-- Generator: Adobe Illustrator 18.0.0, SVG Export Plug-In . SVG Version: 6.00 Build 0)  -->
<!DOCTYPE svg PUBLIC "-//W3C//DTD SVG 1.1//EN" "http://www.w3.org/Graphics/SVG/1.1/DTD/svg11.dtd">
<svg version="1.1" xmlns="http://www.w3.org/2000/svg" xmlns:xlink="http://www.w3.org/1999/xlink" x="0px" y="0px"
	 viewBox="0 0 300 300" enable-background="new 0 0 300 300" xml:space="preserve">
<g id="Layer_2">
	<g id="Layer_1">
		<g>
			<g>
				<g>
					<path fill="#E0E01D" d="M175.7,7c-0.1-0.5-0.4-5.1-25.6-4.8c-25.3-0.5-25.6,4.1-25.7,4.6s-0.7,18.5-0.7,18.5l2.2,0.4v1.1
						c0,0-4.2,4,2.6,5.6l-0.7,7.4c0,0-1.2,3.5-3.3,4.8l-6,3.4c0,0-21.8,10-27.4,27.8c0,0-3.2,0.5-2.6,45.9l2.6,143.4
						c0,0,2.1,12.4,4.4,18.5c2.2,5.8,25.8,12.7,51.9,13.3l0,0c0.8,0,1.7,0,2.5,0c0,0,0,0,0.1,0c0,0,0,0,0.1,0c0.8,0,1.7,0,2.5,0l0,0
						c26.1-0.6,49.7-7.5,51.9-13.3c2.3-6.2,4.4-18.5,4.4-18.5l2.6-143.4c0.6-45.4-2.7-45.9-2.7-45.9c-4.8-15.6-22.1-25.2-26.4-27.3
						c-0.8-0.4-1.6-0.8-2.3-1.2l-4.5-2.5c-2.1-1.4-3.3-4.8-3.3-4.8l-0.7-7.4c6.8-1.6,2.6-5.6,2.6-5.6v-1.1l2.2-0.4
						C176.4,25.5,175.8,7.5,175.7,7"/>
					<path fill="#B2A600" d="M175.4,7.1c-0.1-0.6-0.6-1.1-1.3-1.4c-0.3-0.2-0.6-0.3-0.9-0.5l-1-0.4c-1.4-0.4-2.9-0.7-4.3-0.9
						c-0.7-0.1-1.5-0.2-2.2-0.2c-0.7-0.1-1.5-0.1-2.2-0.2c-1.5-0.1-3-0.1-4.5-0.1c-1.5,0-3,0-4.5,0c-1.5,0.1-3,0.1-4.5,0.1l-4.5,0.1
						c-1.5,0.1-3,0.1-4.5,0.2c-1.5,0.1-3,0.2-4.4,0.4c-0.7,0.1-1.5,0.2-2.2,0.3c-0.7,0.1-1.4,0.2-2.1,0.4c-1.4,0.3-2.8,0.7-4,1.2
						c-0.3,0.1-0.6,0.2-0.8,0.4L127,6.7l-0.3,0.2c-0.2,0.1-0.3,0.3-0.3,0.3c0,0,0,0,0.1-0.1l0,0.1c0-0.1,0,0.1,0-0.1l0,0l0,0l0,0.1
						c0,0.1,0,0.2,0,0.3l-0.2,17.9l-2.1-2.7l2.2,0.3l2.1,0.3l0.1,2.3l0,1.1l-0.8,2c0,0-0.1,0.1-0.1,0.1c0,0.1-0.1,0.1-0.1,0.2
						c0,0.1-0.1,0.1-0.1,0.2c0,0.1,0,0.1,0,0.1c0,0,0,0,0,0c0,0,0-0.1,0-0.1c0-0.1,0-0.1,0-0.2c0-0.1-0.1-0.1-0.1-0.2
						c0,0,0-0.1,0-0.1c0,0,0.1,0,0.1,0c0,0,0.1,0.1,0.2,0.1c0.1,0,0.1,0.1,0.2,0.1l0.3,0.1c0.1,0,0.2,0.1,0.3,0.1l0.8,0.2l2.4,0.6
						l-0.2,2.5l-0.5,7.4l0,0.3l-0.1,0.4c-0.1,0.4-0.2,0.7-0.4,1c-0.1,0.3-0.3,0.6-0.4,0.9c-0.3,0.6-0.6,1.2-1,1.8
						c-0.4,0.6-0.8,1.2-1.4,1.8c-0.3,0.3-0.6,0.6-1,0.9l-0.3,0.2l-0.1,0.1l-0.2,0.1l-0.3,0.2l-5.5,3.3l0,0l-0.2,0.1
						c-0.6,0.3-1.3,0.7-2,1.1c-0.7,0.4-1.4,0.8-2,1.2c-1.3,0.8-2.7,1.7-4,2.6c-0.7,0.4-1.3,0.9-1.9,1.4c-0.6,0.5-1.2,1-1.8,1.5
						c-0.6,0.5-1.2,1-1.8,1.5c-0.6,0.5-1.2,1.1-1.7,1.6l-1.6,1.7c-0.5,0.5-1,1.2-1.5,1.7l-0.7,0.9c-0.2,0.3-0.4,0.6-0.7,0.9
						c-0.4,0.6-0.9,1.2-1.3,1.8l-1.2,1.9c-0.4,0.6-0.7,1.3-1,2c-0.3,0.7-0.7,1.3-0.9,2l-0.7,2L91.8,80c0.6,0,1.5-0.5,1.6-0.6
						c0.1-0.1,0.2-0.1,0.3-0.2c0.2-0.1,0.4-0.4,0.5-0.5c0.1-0.1,0.2-0.2,0.2-0.3l0.1-0.2l0,0l0,0c0,0,0,0,0,0l0,0.1l0,0.2
						c0,0.1-0.1,0.3-0.1,0.5c0,0.2-0.1,0.3-0.1,0.6c-0.1,0.4-0.1,0.8-0.2,1.3L94,82l-0.3,2.8l-0.2,2.9c-0.2,3.8-0.3,7.7-0.3,11.6
						c0,3.9,0,7.8,0.1,11.7c0,3.9,0.2,7.9,0.3,11.8l0.8,23.7l0.7,23.7l1.3,47.4c0.2,7.9,0.4,15.8,0.5,23.7l0.5,23.7l-0.1-0.9
						c0.5,3,1.1,6.1,1.8,9c0.3,1.5,0.7,3,1.1,4.4c0.2,0.7,0.4,1.4,0.6,2.1l0.3,1l0.2,0.5l0.1,0.2l0,0.1l0,0.1c0.1,0.1-0.4-1-0.2-0.5
						l0,0l0.1,0.3l0.1,0.1c0,0,0.1,0.1,0,0c-0.1-0.2-0.2-0.4-0.3-0.6c0,0,0,0,0.1,0.1c0.2,0.2,0.6,0.5,1,0.7
						c0.9,0.6,2.1,1.2,3.4,1.7c2.6,1.1,5.4,2,8.3,2.7c2.9,0.8,5.8,1.4,8.8,2c3,0.6,6,1,9,1.4c3,0.4,6.1,0.7,9.1,0.9
						c1.5,0.1,3.1,0.2,4.6,0.2l2.2,0.1l2.4,0l2.4,0l2.2-0.1c1.5-0.1,3-0.1,4.6-0.2c3.1-0.2,6.1-0.5,9.2-0.8
						c6.1-0.7,12.1-1.8,17.9-3.4c2.9-0.8,5.7-1.7,8.3-2.7c1.3-0.5,2.5-1.1,3.4-1.7c0.4-0.3,0.9-0.6,1.1-0.8c0.1-0.1,0.1-0.1,0.2-0.1
						c0,0-0.1,0.1-0.1,0.1c-0.1,0.1-0.2,0.2-0.2,0.4c0.4-1.1,0.8-2.4,1.2-3.9c0.4-1.4,0.8-2.9,1.1-4.4c0.7-3,1.3-6.1,1.9-9L203,265
						l1.3-47.4c0.2-7.9,0.4-15.8,0.7-23.7l0.8-23.7l0.8-23.7c0.2-7.9,0.6-15.8,0.9-23.7c0.1-3.9,0.3-7.9,0.3-11.8
						c0.1-3.9,0.1-7.8,0.1-11.8c0-3.9-0.1-7.8-0.3-11.7c-0.1-1.9-0.2-3.8-0.4-5.7c-0.1-0.9-0.2-1.8-0.4-2.7c0-0.2-0.1-0.4-0.1-0.6
						c0-0.2-0.1-0.4-0.1-0.5c0-0.1-0.1-0.4-0.1-0.3l0,0l0,0c0,0,0,0.1,0.1,0.1c0,0.1,0.1,0.1,0.1,0.2c0.1,0.1,0.2,0.3,0.4,0.3
						c0.1,0.1,0.1,0.1,0.2,0.1c0.1,0.1,0.8,0.4,1.1,0.4l-2.5-2.1l-0.8-2.5l-1.1-2.4c-0.4-0.8-0.9-1.6-1.3-2.4
						c-0.5-0.8-1-1.5-1.5-2.3c-0.5-0.7-1.1-1.5-1.6-2.2c-0.6-0.7-1.2-1.4-1.8-2.1c-0.6-0.7-1.3-1.3-1.9-2l-2-1.9
						c-0.7-0.6-1.4-1.2-2.1-1.8c-0.7-0.6-1.5-1.2-2.2-1.7c-0.8-0.6-1.5-1.1-2.3-1.6c-0.8-0.5-1.6-1-2.4-1.5c-0.8-0.5-1.6-1-2.4-1.4
						l-2.6-1.4c-0.9-0.5-1.7-1-2.5-1.5l-2.5-1.5l-0.1-0.1l0,0c-1.1-0.8-1.8-1.8-2.4-2.7c-0.3-0.5-0.5-1-0.8-1.5
						c-0.1-0.2-0.2-0.5-0.3-0.8c-0.1-0.3-0.2-0.5-0.3-0.8l-0.1-0.2l0-0.2l-0.5-7.4l-0.1-1.2l1.2-0.3l0.9-0.2
						c0.3-0.1,0.5-0.2,0.8-0.3c0.1,0,0.2-0.1,0.3-0.2c0.1-0.1,0.2-0.1,0.3-0.2c0.1-0.1,0.2-0.1,0.2-0.2C174,30.1,174,30,174,30
						c0.1-0.1,0-0.1,0.1-0.2c0-0.1,0-0.1,0.1-0.2c0-0.1,0-0.1,0-0.2c0-0.1,0-0.2-0.1-0.3c0-0.1-0.1-0.2-0.1-0.3
						c-0.1-0.1-0.1-0.2-0.2-0.3c-0.1-0.1-0.1-0.2-0.2-0.3c-0.1-0.1-0.2-0.2-0.2-0.3l-0.4-0.4l0-0.4l0-1.1l0-1l0.9-0.1l2.2-0.3
						l-0.9,1.1l0-9.3l0-4.6l0-2.3L175.4,7.1l0.7-0.1c0,0.5,0.1,0.8,0.1,1.2l0.1,1.2l0.1,2.3l0.2,4.6l0.3,9.3l0,0.3l-0.3,0.1
						l-2.2,0.4l0.3-0.4l0,1.1l-0.1-0.3c0.3,0.3,0.5,0.5,0.7,0.9c0.1,0.1,0.2,0.3,0.3,0.5c0.1,0.2,0.2,0.3,0.2,0.5
						c0.1,0.2,0.1,0.4,0.1,0.6c0,0.2,0,0.4,0,0.6c0,0.2,0,0.4-0.1,0.6c-0.1,0.2-0.1,0.4-0.3,0.5c-0.1,0.2-0.2,0.3-0.4,0.5l-0.4,0.4
						c-0.1,0.1-0.3,0.2-0.5,0.3c-0.2,0.1-0.3,0.2-0.5,0.3c-0.3,0.1-0.7,0.3-1,0.4l-1,0.3l0.3-0.4l0.7,7.4l0-0.1
						c0.3,0.9,0.8,1.8,1.3,2.6c0.5,0.8,1.1,1.5,1.9,2l0,0l2.6,1.4c0.9,0.5,1.7,1,2.6,1.4l2.6,1.3c0.9,0.5,1.7,0.9,2.6,1.4
						c0.8,0.5,1.7,1,2.5,1.5c0.8,0.5,1.6,1.1,2.4,1.6c0.8,0.5,1.6,1.2,2.4,1.7c0.8,0.6,1.5,1.2,2.3,1.8l2.2,1.9
						c0.7,0.7,1.4,1.4,2.1,2.1c0.7,0.7,1.3,1.4,2,2.2c0.6,0.8,1.3,1.5,1.8,2.3c0.6,0.8,1.1,1.6,1.7,2.4c0.5,0.9,1,1.7,1.5,2.6
						c0.4,0.9,0.9,1.8,1.3,2.7l1,2.8l-0.3-0.3c0.5,0.2,0.4,0.3,0.5,0.5c0.1,0.1,0.1,0.3,0.2,0.4c0.1,0.3,0.2,0.5,0.3,0.7
						c0.2,0.5,0.3,1,0.4,1.5c0.2,1,0.4,2,0.5,3c0.3,2,0.4,3.9,0.6,5.9c0.3,4,0.4,7.9,0.5,11.9c0.1,4,0.1,7.9,0.1,11.9
						c0,4,0,7.9-0.1,11.9l-0.8,47.4l-1.6,94.8l0,0l0,0c-0.6,3.2-1.2,6.3-1.9,9.4c-0.7,3.1-1.5,6.2-2.6,9.3c-0.4,0.9-1,1.5-1.6,2.1
						c-0.6,0.6-1.3,1-2,1.5c-1.4,0.9-2.9,1.6-4.3,2.2c-3,1.2-6,2.2-9.1,3.1c-6.2,1.7-12.5,2.8-18.8,3.6c-3.2,0.4-6.4,0.7-9.5,0.9
						c-3.2,0.2-6.4,0.4-9.6,0.3c-3.2,0-6.4-0.1-9.6-0.3c-3.2-0.2-6.4-0.5-9.5-0.9c-6.3-0.8-12.7-1.9-18.8-3.6
						c-3.1-0.8-6.2-1.8-9.1-3.1c-1.5-0.6-3-1.3-4.4-2.2c-0.7-0.4-1.4-0.9-2-1.5c-0.3-0.3-0.6-0.6-0.9-0.9l-0.4-0.6
						c-0.1-0.2-0.2-0.4-0.3-0.5c-0.3-0.9-0.6-1.6-0.8-2.4c-0.2-0.8-0.5-1.5-0.7-2.3c-0.4-1.5-0.8-3.1-1.1-4.7
						c-0.7-3.1-1.3-6.2-1.9-9.4l0,0l0-0.1l-1.6-94.8L88,122.9c0-4-0.1-7.9-0.1-11.9c0-4,0-7.9,0.1-11.9c0.1-4,0.2-7.9,0.5-11.9
						c0.1-2,0.3-4,0.6-5.9c0.1-1,0.3-2,0.5-3c0.1-0.5,0.2-1,0.4-1.5c0.1-0.3,0.1-0.5,0.3-0.8c0.1-0.1,0.1-0.2,0.2-0.4
						c0.1-0.1,0-0.3,0.6-0.5l-0.4,0.3l0.9-2.4c0.3-0.8,0.7-1.6,1.1-2.3c0.4-0.7,0.7-1.5,1.2-2.2l1.4-2.1c0.5-0.7,1-1.3,1.5-2
						c0.3-0.3,0.5-0.7,0.8-1l0.8-0.9c0.6-0.6,1.1-1.3,1.7-1.9l1.8-1.8c0.6-0.6,1.3-1.1,1.9-1.7c0.6-0.6,1.3-1.1,1.9-1.6
						c0.6-0.5,1.3-1.1,2-1.5c0.7-0.5,1.3-1,2-1.5c1.4-1,2.8-1.9,4.2-2.7c1.4-0.9,2.9-1.7,4.4-2.4l0,0l5.6-3.2l0.3-0.2
						c0.1,0,0.2-0.1,0.3-0.2c0.2-0.1,0.4-0.3,0.6-0.5c0.4-0.3,0.7-0.7,1-1.2c0.6-0.8,1-1.8,1.4-2.8l0,0.1l0.7-7.4l0.3,0.5l-1-0.3
						c-0.3-0.1-0.7-0.3-1-0.4c-0.2-0.1-0.3-0.2-0.5-0.3c-0.2-0.1-0.3-0.2-0.5-0.3l-0.4-0.4c-0.1-0.1-0.2-0.3-0.4-0.5
						c-0.1-0.2-0.2-0.4-0.3-0.6c-0.1-0.2-0.1-0.4-0.1-0.6c0-0.2,0-0.4,0-0.6c0-0.2,0.1-0.4,0.2-0.6c0.1-0.2,0.1-0.4,0.2-0.5
						c0.1-0.2,0.2-0.3,0.3-0.5c0.2-0.3,0.4-0.6,0.7-0.9l-0.1,0.3l0-1.1l0.3,0.4l-2.2-0.4l-0.4-0.1l0-0.4l0.3-9l0.2-4.5l0.2-4.6
						l0-0.3c0-0.1,0-0.1,0-0.2l0-0.2c0.1-0.2,0.2-0.4,0.3-0.6c0.2-0.4,0.6-0.7,0.9-0.9l0.5-0.3l0.5-0.3c0.3-0.2,0.7-0.3,1.1-0.5
						c1.5-0.5,2.9-0.9,4.4-1.1c0.7-0.1,1.5-0.3,2.3-0.3c0.8-0.1,1.5-0.2,2.3-0.2c1.5-0.1,3-0.2,4.5-0.3c1.5-0.1,3-0.1,4.5-0.1l4.5,0
						l4.5,0c1.5,0,3,0.1,4.5,0.1c1.5,0.1,3,0.2,4.5,0.3c0.8,0.1,1.5,0.1,2.3,0.2c0.8,0.1,1.5,0.2,2.3,0.3c1.5,0.3,3,0.6,4.4,1.1
						l1.1,0.4c0.3,0.2,0.7,0.4,1,0.6l0.5,0.4l0.4,0.4c0.3,0.3,0.5,0.7,0.6,1.2L175.4,7.1z"/>
				</g>
			</g>
		</g>
	</g>
	<g id="Layer_3">
		<ellipse fill="#DFE065" stroke="#B2A600" stroke-miterlimit="10" cx="150.7" cy="149" rx="51.3" ry="57.5"/>
	</g>
</g>
<g id="Layer_3_1_">
	
		<ellipse transform="matrix(0.7379 -0.6749 0.6749 0.7379 3.8198 134.3672)" fill="#FFFFFF" cx="174.9" cy="62.3" rx="7.5" ry="10.7"/>
	<path fill="#FFFFFF" d="M102.4,232.5l1,31c0,0-2,11,3,13s11,4.3,16,5.3c0,0,1.5-6.5-6-8.5C107.3,270.8,111.4,230.5,102.4,232.5z"/>
</g>
<g id="Layer_4">
	<rect x="148.4" y="120.1" fill="none" width="51.1" height="111.3"/>
	<text transform="matrix(1 0 0 1 148.3546 165.798)" fill="#B2A600" font-family="'RobotoSlab-Regular'" font-size="60">B</text>
</g>
<g id="Layer_5">
	<rect x="94" y="120.1" fill="none" width="58" height="126.7"/>
	<text transform="matrix(-1 0 0 1 151.9995 165.8137)" fill="#B2A600" font-family="'Roboto-Medium'" font-size="60">F</text>
</g>
</svg>
